<svg enable-background="new 0 0 146.9 22.2" viewBox="0 0 146.9 22.2" xmlns="http://www.w3.org/2000/svg">
   <g transform="translate(40 30)">
      <g>
         <path d="m-34.7-12.7c2 0 3.6-.3 4.7-.9 1.2-.6 2.1-1.6 2.7-2.7.7-1.3 1.1-2.8 1.1-4.3 0-1.7-.4-3.4-1.3-4.9-.9-1.3-2.2-2.4-3.7-2.9-1.1-.4-2.9-.6-5.3-.6h-3.4v16.3zm-3.6-14.7h1.2c2.3 0 4 .2 5 .5 1.3.4 2.4 1.2 3.2 2.3.8 1.2 1.2 2.6 1.1 4 0 1.3-.3 2.7-1 3.8-.7 1-1.7 1.8-2.9 2.1-.9.3-2.4.4-4.7.4h-1.9zm24.6 2.6v2.2c-.5-.8-1.3-1.4-2.1-1.9-.8-.4-1.7-.6-2.7-.6-1.7 0-3.3.6-4.4 1.9-1.2 1.2-1.8 2.8-1.8 4.4 0 1.7.6 3.3 1.8 4.5 1.8 1.9 4.6 2.4 7 1.3.8-.4 1.6-1 2.2-1.8v2.1h1.5v-12h-1.5zm-1.3 2.6c.9.9 1.4 2.2 1.4 3.5 0 .9-.2 1.7-.6 2.5-.4.7-1 1.3-1.8 1.7-.7.4-1.6.6-2.4.6s-1.6-.2-2.4-.6c-.7-.4-1.3-1.1-1.8-1.8-.9-1.5-.9-3.4 0-4.9.8-1.5 2.4-2.4 4.1-2.4 1.4 0 2.6.5 3.5 1.4zm6.7-2.6h-2.1v1.3h2.1v10.7h1.5v-10.7h2.5v-1.3h-2.5v-4.5h-1.5zm15.8 0v2.2c-.5-.7-1.3-1.4-2.1-1.8s-1.7-.6-2.7-.6c-1.7 0-3.2.6-4.4 1.8s-1.9 2.8-1.8 4.4c0 1.7.6 3.3 1.8 4.5 1.8 1.9 4.6 2.4 7 1.3.8-.4 1.6-1 2.2-1.8v2.1h1.5v-12h-1.5zm-1.3 2.6c.9.9 1.4 2.2 1.4 3.5 0 .9-.2 1.7-.6 2.5-.4.7-1 1.3-1.8 1.7-.7.4-1.6.6-2.4.6s-1.6-.2-2.4-.6c-.7-.4-1.3-1.1-1.8-1.8-.9-1.5-.9-3.4 0-4.9.4-.7 1-1.4 1.7-1.8s1.5-.6 2.4-.6c1.4 0 2.6.5 3.5 1.4zm6.1 7.4c-.3.3-.4.6-.4 1s.1.7.4 1 .6.4 1 .4.7-.1 1-.4.4-.6.4-1-.1-.7-.4-1-.6-.4-1-.4-.8.1-1 .4z" fill="#5b5b5b"/>
         <path d="m64-14.8c-.5.5-.5 1.4 0 2 .3.3.6.4 1 .4s.7-.1 1-.4c.4-.4.5-1 .3-1.5s-.7-.9-1.3-.9c-.4 0-.8.1-1 .4zm14.9-8c-.6-.8-1.4-1.4-2.3-1.9-.8-.4-1.7-.6-2.6-.6-3.5 0-6.3 2.8-6.3 6.3 0 1.1.3 2.2.8 3.1s1.3 1.7 2.3 2.2c1.8 1 4 1.1 5.9.2.8-.4 1.6-1 2.2-1.7v.6c0 1.3-.2 2.3-.5 2.9-.4.7-.9 1.2-1.6 1.5-.8.4-1.8.6-2.7.6s-1.9-.2-2.7-.6-1.4-1-1.8-1.8h-1.7c.3.8.8 1.6 1.4 2.2.6.5 1.1.9 1.9 1.2.9.3 1.9.5 2.8.4 1.3 0 2.7-.3 3.8-.9 1-.6 1.8-1.5 2.1-2.6.3-.8.4-2 .4-3.8v-9.7h-1.6v2.4zm-2.2-.3c.7.4 1.3 1 1.7 1.7.4.8.6 1.6.6 2.5.1 1.3-.4 2.5-1.3 3.4s-2 1.3-3.5 1.3c-1.3.1-2.5-.4-3.5-1.3-.9-.9-1.4-2.1-1.3-3.3 0-.9.2-1.7.6-2.5.4-.7 1-1.4 1.8-1.8s1.6-.6 2.5-.6c.8 0 1.6.2 2.4.6zm7.1-.1c-2.3 2.5-2.2 6.4.1 8.9 1.2 1.2 2.9 1.9 4.6 1.9s3.4-.7 4.6-1.9c2.3-2.5 2.4-6.3.1-8.9-1.2-1.3-2.9-2-4.7-2-1.8-.1-3.5.7-4.7 2zm8 .9c.9.9 1.4 2.2 1.4 3.5 0 .9-.2 1.7-.6 2.5-.4.7-1 1.3-1.7 1.8-1.5.8-3.3.8-4.8 0-.7-.4-1.3-1-1.7-1.8s-.6-1.6-.6-2.5c0-1.3.5-2.6 1.4-3.5s2.1-1.4 3.4-1.4c1.1 0 2.4.5 3.2 1.4zm9.2 9.6h.3l5.6-12.2h-1.7l-4 8.9-4.1-8.9h-1.7z" fill="#5b5b5b"/>
         <g fill="#0b4d89">
            <path d="m23.8-12.1c-2.6 0-4.8-.8-6.5-2.5s-2.5-3.8-2.5-6.4c0-1.6.4-3.1 1.1-4.5.8-1.3 1.9-2.4 3.3-3.2s3-1.2 4.6-1.2c2.8 0 5.5 1.2 7.4 3.4l.1.2-2.5 2.4-.2-.2c-1.4-1.5-3.1-2.3-4.9-2.3-1.4 0-2.8.5-3.8 1.6-1 1-1.6 2.4-1.6 3.8 0 1 .2 2 .7 2.8s1.1 1.5 1.9 1.9c.9.5 1.8.7 2.8.7.8 0 1.6-.1 2.4-.5.9-.5 1.7-1.1 2.4-1.8l.2-.2 2.4 2.6-.2.2c-1 1-2.2 1.9-3.5 2.5-1 .5-2.3.7-3.6.7z"/>
            <path d="m57.4-12.1c-1.1 0-2.2-.3-3.2-.9-1-.7-1.8-1.7-2.3-2.8l-.1-.2 3-1.8.1.2c.7 1.4 1.6 2.1 2.6 2.1.4 0 .9-.1 1.2-.4.3-.2.5-.6.5-.9 0-.4-.1-.7-.4-1-.5-.6-1.1-1.2-1.8-1.7-1.8-1.5-3-2.6-3.5-3.4-.5-.7-.8-1.6-.8-2.5 0-1.2.5-2.3 1.4-3.1.9-.9 2.1-1.3 3.4-1.3.9 0 1.7.2 2.5.6 1 .6 1.8 1.3 2.5 2.1l.1.2-2.7 2.4-.1-.2c-.8-1.1-1.5-1.6-2.3-1.6-.3 0-.6.1-.9.3-.2.1-.3.3-.3.6 0 .2.1.5.2.6.7.7 1.5 1.4 2.3 2.1 1.2 1 1.9 1.6 2.2 1.9.6.6 1 1.2 1.4 1.9.3.6.4 1.3.4 2 0 1.3-.5 2.6-1.5 3.5s-2.3 1.3-3.9 1.3z"/>
            <path d="m51.7-12.5h-3.5l-1.6-9.7-3.3 9.7h-3.1l-3.2-9.7-1.7 9.7h-3.5l2.9-16.9h3.4l3.7 11 3.7-11h3.4z"/>
         </g>
      </g>
   </g>
</svg>