<?xml version="1.0" encoding="utf-8"?>
<!-- Generator: Adobe Illustrator 25.4.1, SVG Export Plug-In . SVG Version: 6.00 Build 0)  -->
<svg version="1.1" id="Guides" xmlns="http://www.w3.org/2000/svg" xmlns:xlink="http://www.w3.org/1999/xlink" x="0px" y="0px" width="150px" height="32px"
	 viewBox="0 0 376 80" style="enable-background:new 0 0 376 80;" xml:space="preserve">
<style type="text/css">
	.st0{fill:#FFDB00;}
</style>
<g>
	<g>
		<path d="M135.5,58.34c4.02,0,8.04-0.98,11.73-3.69v-9.19H136v-8.21h20.76v21.66c-4.84,4.68-11.65,8.45-21.25,8.45
			c-17.31,0-28.31-12.23-28.31-27.41c0-15.18,10.99-27.41,27.49-27.41c8.04,0,15.1,3.04,19.94,8.53l-6.97,6.89
			c-3.12-3.86-7.63-6.15-12.96-6.15c-10.09,0-17.64,8.37-17.64,18.13C117.04,49.97,124.59,58.34,135.5,58.34z"/>
		<path d="M182.68,67.45c-11.49,0-20.59-9.11-20.59-20.35c0-11.24,9.11-20.35,20.59-20.35s20.59,9.11,20.59,20.35
			C203.27,58.34,194.17,67.45,182.68,67.45z M182.68,58.58c6.56,0,11.41-5.42,11.41-11.49c0-6.07-4.84-11.49-11.41-11.49
			c-6.56,0-11.41,5.42-11.41,11.49C171.27,53.17,176.11,58.58,182.68,58.58z"/>
		<path d="M227.15,67.45c-11.49,0-20.59-9.11-20.59-20.35c0-11.24,9.11-20.35,20.59-20.35c11.49,0,20.59,9.11,20.59,20.35
			C247.74,58.34,238.63,67.45,227.15,67.45z M227.15,58.58c6.56,0,11.41-5.42,11.41-11.49c0-6.07-4.84-11.49-11.41-11.49
			c-6.56,0-11.41,5.42-11.41,11.49C215.74,53.17,220.58,58.58,227.15,58.58z"/>
		<path d="M283.02,13.37h9.19v53.25h-9.19v-4.02c-2.87,3.04-7.14,4.84-11.98,4.84c-11.16,0-20.02-9.44-20.02-20.35
			c0-10.91,8.86-20.35,20.02-20.35c4.84,0,9.11,1.8,11.98,4.84V13.37z M271.61,35.61c-6.56,0-11.41,5.42-11.41,11.49
			c0,6.07,4.84,11.49,11.41,11.49s11.41-5.42,11.41-11.49C283.02,41.03,278.18,35.61,271.61,35.61z"/>
		<path d="M330.61,66.63l-12.39-21.09h-10.5v21.09h-6.48V13.37h16.57c12.8,0,18.54,7.06,18.54,15.92c0,7.38-3.77,13.37-11.24,15.43
			l12.88,21.91H330.61z M307.71,40.21h10.42c7.88,0,11.73-4.1,11.73-10.42c0-6.32-3.86-10.42-11.73-10.42h-10.42V40.21z"/>
		<path d="M353.58,46.44l-13.62-18.79h7.3l10.01,13.78l10.01-13.78h7.3l-13.62,18.87l14.69,20.1h-7.38l-11.08-15.1l-10.91,15.1
			h-7.38L353.58,46.44z"/>
	</g>
	<g>
		<g>
			<path class="st0" d="M66.4,24.57H55.43V13.6c0-7.51-6.09-13.6-13.6-13.6c-7.51,0-13.6,6.09-13.6,13.6v38.16H66.4
				c7.51,0,13.6-6.09,13.6-13.6C80,30.65,73.91,24.57,66.4,24.57"/>
			<path class="st0" d="M28.24,55.26V66.4c0,7.51,6.09,13.6,13.6,13.6s13.6-6.09,13.6-13.6V55.26H28.24z"/>
			<path class="st0" d="M24.56,24.57H13.6C6.09,24.57,0,30.65,0,38.16c0,7.51,6.09,13.6,13.6,13.6h10.96V24.57z"/>
		</g>
	</g>
</g>
</svg>
